<?xml version="1.0" encoding="UTF-8" standalone="no"?>
<!-- Created with Inkscape (http://www.inkscape.org/) -->

<svg
   width="512"
   height="512"
   viewBox="0 0 135.46667 135.46667"
   version="1.1"
   id="svg1"
   inkscape:version="1.3 (0e150ed, 2023-07-21)"
   sodipodi:docname="sealkey_icon_2.svg"
   inkscape:export-filename="sealkey_24x24.png"
   inkscape:export-xdpi="4.5"
   inkscape:export-ydpi="4.5"
   xmlns:inkscape="http://www.inkscape.org/namespaces/inkscape"
   xmlns:sodipodi="http://sodipodi.sourceforge.net/DTD/sodipodi-0.dtd"
   xmlns="http://www.w3.org/2000/svg"
   xmlns:svg="http://www.w3.org/2000/svg">
  <sodipodi:namedview
     id="namedview1"
     pagecolor="#ffffff"
     bordercolor="#000000"
     borderopacity="0.25"
     inkscape:showpageshadow="2"
     inkscape:pageopacity="0.0"
     inkscape:pagecheckerboard="0"
     inkscape:deskcolor="#d1d1d1"
     inkscape:document-units="mm"
     inkscape:zoom="1.3103175"
     inkscape:cx="88.146578"
     inkscape:cy="302.59843"
     inkscape:window-width="1872"
     inkscape:window-height="1212"
     inkscape:window-x="38"
     inkscape:window-y="59"
     inkscape:window-maximized="0"
     inkscape:current-layer="layer1" />
  <defs
     id="defs1" />
  <g
     inkscape:label="Calque 1"
     inkscape:groupmode="layer"
     id="layer1">
    <path
       id="ellipse6-5-6-4-4"
       style="fill:#800000;stroke-width:0.107245"
       d="M 84.881918,6.014718 C 84.102961,5.980167 83.319563,5.989955 82.535591,6.045512 78.673784,6.3220609 74.97022,7.4872139 71.177535,8.16871 66.160137,9.0773724 61.646264,8.25771 56.707881,7.309537 51.018865,6.2230923 45.517246,5.6897141 41.052949,10.104627 36.687418,14.440526 34.672852,20.692391 30.653009,25.42336 28.075174,28.465405 24.82577,30.667825 21.378779,32.60367 15.492227,35.912387 9.0128836,38.816376 5.2498361,44.732557 1.4472823,50.708 3.3636372,56.554959 6.3760508,62.372374 c 1.8963385,3.664284 3.4070351,7.219906 3.8218592,11.368148 0.36544,3.703796 0.128791,7.427329 0.109037,11.140995 -0.01976,6.25199 0.770346,12.60311 5.432179,17.205673 4.474174,4.41491 10.706293,6.31093 16.069376,9.35298 3.219826,1.82719 5.916152,4.08927 8.138425,7.06218 2.024736,2.70624 3.733535,5.68882 6.212602,8.03949 11.842242,11.23976 27.872192,-1.31349 39.832947,-5.15555 7.259429,-2.33092 15.417894,-1.84721 21.976064,-6.17323 5.33346,-3.52601 8.49403,-8.94831 9.70887,-15.14103 0.76052,-3.901318 1.09603,-8.147976 3.62448,-11.397426 2.24204,-2.893893 5.71853,-4.346221 8.54328,-6.568495 4.74084,-3.763048 6.31147,-9.678876 5.35342,-15.535793 -2.50869,-15.388004 -19.54595,-21.827873 -26.77573,-34.410871 -2.23215,-3.891446 -2.81531,-8.247249 -4.38573,-12.375737 -1.02717,-2.696356 -2.59751,-5.135751 -4.612366,-7.199996 C 95.578999,8.6601684 90.334579,6.256565 84.881918,6.014719 Z"
       inkscape:label="ellipse1" />
    <path
       id="ellipse6-5-6-4"
       style="fill:#d40000;stroke-width:0.107245"
       d="M 81.746191,3.7124752 C 80.967239,3.6779258 80.183838,3.6877113 79.399871,3.7432682 75.538056,4.0198176 71.834493,5.1849703 68.041815,5.8664671 63.024418,6.7751295 58.510541,5.9554628 53.572159,5.0072934 47.883142,3.9208492 42.381523,3.3874704 37.917226,7.8023844 33.551696,12.138284 31.537129,18.390149 27.517287,23.121118 c -2.577836,3.042044 -5.82724,5.244464 -9.27423,7.18031 -5.886553,3.308717 -12.3658957,6.212706 -16.1289432,12.128888 -3.8025546,5.975443 -1.88619921,11.822402 1.1262142,17.639817 1.8963388,3.664279 3.4070351,7.219909 3.8218592,11.368151 0.3654403,3.703787 0.1287909,7.427326 0.1090373,11.140988 -0.019754,6.251993 0.7703458,12.603114 5.4321785,17.20569 4.474174,4.414908 10.706293,6.310928 16.069376,9.352978 3.219826,1.82719 5.916152,4.08927 8.138425,7.06218 2.024736,2.70624 3.733535,5.68882 6.212602,8.03949 11.842243,11.23976 27.872189,-1.31349 39.832951,-5.15555 7.259422,-2.33092 15.417899,-1.84721 21.976063,-6.17323 5.33346,-3.52601 8.49403,-8.94831 9.70887,-15.141043 0.76052,-3.901321 1.09603,-8.147974 3.62449,-11.397429 2.24203,-2.893893 5.71852,-4.346217 8.54327,-6.568489 4.74084,-3.763047 6.31148,-9.678877 5.35342,-15.5358 -2.50869,-15.388 -19.54594,-21.827869 -26.77573,-34.410867 -2.23215,-3.891445 -2.81531,-8.247249 -4.38572,-12.375736 C 99.874242,14.785109 98.303903,12.345714 96.289045,10.28147 92.443279,6.3579244 87.198861,3.9543208 81.746191,3.7124752 Z"
       inkscape:label="ellipse1" />
    <path
       id="path13"
       style="fill:#ffffff;stroke:none;stroke-width:0;stroke-dasharray:none"
       d="m 63.442411,45.23331 c -6.365885,0 -11.458509,5.246476 -11.458509,11.803794 0,4.371547 2.334182,8.305533 5.941524,10.27273 l -3.395301,15.081982 c -0.4244,1.967197 1.061326,3.934431 3.183284,3.934431 h 11.458005 c 2.121956,0 3.607677,-1.967234 3.183284,-3.934431 L 68.959397,67.309834 c 3.607337,-1.967197 5.942029,-5.901183 5.942029,-10.27273 0,-6.557318 -5.093128,-11.803794 -11.459015,-11.803794 z"
       inkscape:label="path7" />
    <path
       id="path12"
       style="color:#000000;fill:#ffffff;stroke:none;stroke-width:1.55075;stroke-linecap:round;stroke-linejoin:round;stroke-dasharray:none;stroke-opacity:1;-inkscape-stroke:none"
       d="m 8.3337845,45.234496 a 0.77545377,0.77545377 0 0 0 -0.1751665,0.01009 0.77545377,0.77545377 0 0 0 -0.4507885,0.2524 c -0.4032781,0.45929 -0.7511283,0.985258 -1.012129,1.563376 -0.14121,0.306743 -0.237626,0.60031 -0.3261023,0.865729 a 0.77545377,0.77545377 0 0 0 -0.00808,0.02525 c -0.090293,0.304738 -0.1573026,0.61874 -0.201921,0.941454 -0.044835,0.314398 -0.065752,0.627146 -0.076225,0.930857 -0.011029,0.319829 7.2e-5,0.640291 0.032813,0.959627 0.054234,0.623462 0.1722118,1.220048 0.3291311,1.796091 0.07329,0.28216 0.1561605,0.563886 0.2498772,0.845037 0.096156,0.288471 0.2000755,0.556438 0.2988431,0.813235 0.2092522,0.544051 0.4445169,1.055057 0.6734064,1.542682 a 0.77545377,0.77545377 0 0 0 0.00454,0.0086 c 0.4821324,0.994384 0.9567371,1.884973 1.4033511,2.797607 a 0.77545377,0.77545377 0 0 0 0.00101,0.0015 c 0.8978699,1.825021 1.6944459,3.662091 2.3533889,5.561405 0.329102,0.948586 0.620473,1.909527 0.8935,2.904128 a 0.77545377,0.77545377 0 0 0 0.0025,0.0106 l 0.109036,0.375061 a 0.77545377,0.77545377 0 0 0 0.0091,0.02979 c 0.02316,0.06948 0.04912,0.175994 0.07875,0.304392 a 0.77545377,0.77545377 0 0 0 0.0086,0.03483 c 0.06769,0.241744 0.133781,0.487507 0.188796,0.725903 0.0635,0.275197 0.132771,0.531933 0.187787,0.770329 a 0.77545377,0.77545377 0 0 0 0.0065,0.02726 c 0.06302,0.23408 0.122629,0.500407 0.197883,0.779919 a 0.77545377,0.77545377 0 0 0 1.510874,-0.06007 c 0.05357,-0.28932 0.08557,-0.575865 0.09844,-0.850598 0.03974,-0.28129 0.06031,-0.546886 0.07875,-0.796067 0.03428,-0.325282 0.03383,-0.610849 0.04291,-0.856149 l -0.0015,0.02676 c 0.01231,-0.1723 0.01161,-0.322101 0.01161,-0.460376 a 0.77545377,0.77545377 0 0 0 0,-0.01919 l -0.0096,-0.399802 c -2.9e-5,-0.0016 -5.06e-4,-0.0034 -5.06e-4,-0.005 -0.02088,-1.122347 -0.144006,-2.248625 -0.348313,-3.351881 a 0.77545377,0.77545377 0 0 0 -10e-4,-0.0065 c -0.429422,-2.208457 -1.183874,-4.345821 -2.159041,-6.336782 a 0.77545377,0.77545377 0 0 0 -0.0055,-0.01111 C 12.086195,56.508369 11.844258,56.0129 11.560496,55.518943 l -0.767778,-1.358416 a 0.77545377,0.77545377 0 0 0 -0.0035,-0.006 c -0.245764,-0.425401 -0.47912,-0.872079 -0.718408,-1.320741 a 0.77545377,0.77545377 0 0 0 -0.0035,-0.006 C 9.9621554,52.635016 9.8589047,52.41986 9.7502601,52.192695 a 0.77545377,0.77545377 0 0 0 -0.012114,-0.02424 C 9.6359671,51.97262 9.5446316,51.763618 9.4458638,51.536452 9.3570805,51.33225 9.2737383,51.119978 9.1874054,50.89939 9.109046,50.664757 9.0355361,50.452396 8.9753886,50.246169 a 0.77545377,0.77545377 0 0 0 -0.00101,-0.0045 C 8.8493604,49.821924 8.7600071,49.384402 8.7159222,48.952373 c -0.043868,-0.429906 -0.04367,-0.87844 0.00858,-1.32258 0.052389,-0.445313 0.1595732,-0.914382 0.3069198,-1.393257 a 0.77545377,0.77545377 0 0 0 -0.6976375,-1.00204 z"
       inkscape:label="path6" />
    <path
       id="path11"
       style="color:#000000;fill:#ffffff;stroke:none;stroke-width:1.55075;stroke-linecap:round;stroke-linejoin:round;stroke-dasharray:none;stroke-opacity:1;-inkscape-stroke:none"
       d="m 40.749672,111.38028 a 0.77545377,0.77545377 0 0 0 -0.354371,0.0288 l 5.05e-4,5.1e-4 a 0.77545377,0.77545377 0 0 0 -0.405357,1.17064 c 0.380438,0.56551 0.789607,1.10764 1.217584,1.62747 0.430833,0.53323 0.876058,1.02862 1.323592,1.51593 a 0.77545377,0.77545377 0 0 0 0.0086,0.009 c 0.925593,0.97645 1.944622,1.90407 3.050521,2.7335 a 0.77545377,0.77545377 0 0 0 0.0035,0.003 c 0.274031,0.203 0.559038,0.40648 0.846049,0.60123 a 0.77545377,0.77545377 0 0 0 0.0106,0.007 c 0.30729,0.20132 0.599834,0.37217 0.875327,0.54316 a 0.77545377,0.77545377 0 0 0 0.01312,0.008 c 0.611636,0.36283 1.241376,0.68287 1.887961,0.97023 0.652845,0.29016 1.324679,0.5381 2.006085,0.74459 0.688271,0.20856 1.381877,0.36342 2.087358,0.48612 a 0.77545377,0.77545377 0 0 0 0.0045,0.001 c 1.42732,0.23962 2.874717,0.26991 4.284764,0.1464 a 0.77545377,0.77545377 0 0 0 0.01211,-0.001 c 0.688991,-0.0709 1.381462,-0.17255 2.068681,-0.31551 0.197886,-0.0353 0.369328,-0.0782 0.528023,-0.1156 a 0.77545377,0.77545377 0 0 0 0.0106,-0.003 c 0.121156,-0.0303 0.304525,-0.061 0.527519,-0.13074 0.121156,-0.0379 0.2887,-0.0774 0.4836,-0.13831 0.170786,-0.0503 0.330017,-0.1003 0.484107,-0.14842 a 0.77545377,0.77545377 0 0 0 0.0035,-0.001 c 1.315401,-0.41808 2.569044,-0.93793 3.778446,-1.54772 a 0.77545377,0.77545377 0 0 0 0.0025,-0.002 c 0.596937,-0.30354 1.18362,-0.6274 1.760246,-0.97124 0.582345,-0.33735 1.152522,-0.70356 1.702194,-1.09038 a 0.77545377,0.77545377 0 0 0 -0.642109,-1.38466 c -0.660157,0.17265 -1.291973,0.36358 -1.914211,0.55124 -0.620549,0.17732 -1.22562,0.35299 -1.834956,0.51742 a 0.77545377,0.77545377 0 0 0 -0.0015,0 c -1.224458,0.33305 -2.428141,0.63339 -3.63054,0.85463 a 0.77545377,0.77545377 0 0 0 -10e-4,0 c -2.396143,0.44265 -4.764521,0.57102 -7.030888,0.19485 a 0.77545377,0.77545377 0 0 0 -5.05e-4,0 c -1.144498,-0.18917 -2.269145,-0.49151 -3.355422,-0.90713 a 0.77545377,0.77545377 0 0 0 -0.01312,-0.005 c -0.540535,-0.19571 -1.080024,-0.43197 -1.616376,-0.69058 a 0.77545377,0.77545377 0 0 0 -0.0101,-0.005 c -0.262775,-0.122 -0.526111,-0.25388 -0.790016,-0.39525 a 0.77545377,0.77545377 0 0 0 -0.01969,-0.0101 c -0.263339,-0.13167 -0.523573,-0.27145 -0.770834,-0.41797 a 0.77545377,0.77545377 0 0 0 -0.01009,-0.006 c -1.057915,-0.6059 -2.083988,-1.2833 -3.11766,-2.01466 a 0.77545377,0.77545377 0 0 0 -0.004,-0.003 c -0.514339,-0.35908 -1.023078,-0.73092 -1.545201,-1.11511 -0.510618,-0.38298 -1.038012,-0.78118 -1.583565,-1.16508 a 0.77545377,0.77545377 0 0 0 -0.330142,-0.13226 z"
       inkscape:label="path5" />
    <path
       id="path6"
       style="color:#000000;fill:#ffffff;stroke:none;stroke-width:1.55075;stroke-linecap:round;stroke-linejoin:round;-inkscape-stroke:none"
       d="m 123.15766,55.413845 a 0.77545377,0.77545377 0 0 0 -0.93944,0.814754 c 0.0506,0.677044 0.12067,1.346353 0.1898,2.008097 a 0.77545377,0.77545377 0 0 0 0,10e-4 l 0.20698,1.960146 c 0.1273,1.292533 0.22405,2.565541 0.24332,3.807723 a 0.77545377,0.77545377 0 0 0 0,0.0111 c 0.0101,0.326407 0.0177,0.618562 10e-4,0.88644 a 0.77545377,0.77545377 0 0 0 -0.002,0.03231 l -0.0101,0.474006 a 0.77545377,0.77545377 0 0 0 0,0.01616 c 0,0.09341 -0.0164,0.235393 -0.0283,0.425541 l -0.0293,0.463408 c -0.0195,0.165337 -0.0299,0.307119 -0.0449,0.427062 a 0.77545377,0.77545377 0 0 0 -0.002,0.01415 l -0.0474,0.448257 -0.0667,0.446756 -0.0652,0.429076 -0.0939,0.430598 a 0.77545377,0.77545377 0 0 0 -0.004,0.02171 c -0.0286,0.15228 -0.0551,0.280214 -0.0863,0.397274 l -0.11761,0.442716 -0.0585,0.215046 c -0.0221,0.07651 -0.039,0.127471 -0.0338,0.115599 a 0.77545377,0.77545377 0 0 0 -0.0212,0.05553 l -0.14841,0.434637 a 0.77545377,0.77545377 0 0 0 -0.009,0.02726 c -0.0757,0.252401 -0.17122,0.488337 -0.28623,0.756699 -0.43904,1.014553 -1.0561,1.965805 -1.81072,2.841529 a 0.77545377,0.77545377 0 0 0 -0.008,0.0096 c -0.36862,0.442351 -0.78216,0.866499 -1.22415,1.289265 -0.21905,0.209525 -0.44807,0.419505 -0.67593,0.618889 -0.22901,0.20038 -0.47242,0.404413 -0.71934,0.611826 -0.96633,0.811713 -1.99468,1.586289 -3.04699,2.400332 -0.52347,0.404949 -1.05409,0.815062 -1.58054,1.25039 -0.51359,0.424702 -1.04255,0.860998 -1.55378,1.351361 a 0.77545377,0.77545377 0 0 0 0.84656,1.270587 c 0.62008,-0.27004 1.23231,-0.551113 1.84555,-0.852612 0.60301,-0.276945 1.20706,-0.563707 1.80315,-0.861699 1.214,-0.592093 2.41547,-1.248079 3.58208,-2.008611 l 0.002,-0.001 c 0.29091,-0.187066 0.58618,-0.390932 0.86927,-0.593139 0.28526,-0.203759 0.57343,-0.419813 0.85514,-0.649181 0.55883,-0.445215 1.10569,-0.940576 1.61385,-1.469477 0.51245,-0.533375 0.99399,-1.118535 1.42456,-1.748633 0.43058,-0.630109 0.81028,-1.304959 1.11814,-2.016186 a 0.77545377,0.77545377 0 0 0 0.006,-0.01261 c 0.13827,-0.335811 0.28776,-0.694308 0.40233,-1.083819 l 0.14992,-0.477542 c 0.0402,-0.120526 0.0671,-0.230563 0.0893,-0.330645 l 0.0585,-0.253912 0.11862,-0.513385 a 0.77545377,0.77545377 0 0 0 0.009,-0.04695 c 0.0287,-0.172419 0.0586,-0.339514 0.0888,-0.520961 v -0.0025 l 0.0883,-0.52096 a 0.77545377,0.77545377 0 0 0 0,-5.04e-4 0.77545377,0.77545377 0 0 0 0,-5.04e-4 0.77545377,0.77545377 0 0 0 0,-5.03e-4 0.77545377,0.77545377 0 0 0 0,-5.04e-4 0.77545377,0.77545377 0 0 0 0,-5.13e-4 c 0.0381,-0.228312 0.0481,-0.412653 0.0652,-0.565377 a 0.77545377,0.77545377 0 0 0 0.001,-0.01262 l 0.0494,-0.523478 a 0.77545377,0.77545377 0 0 0 0.003,-0.04341 l 0.0191,-0.50985 10e-4,-0.01363 c 0.0101,-0.1723 0.0201,-0.351257 0.0201,-0.552763 a 0.77545377,0.77545377 0 0 0 0,-0.01514 l -0.0101,-0.513385 a 0.77545377,0.77545377 0 0 0 -0.002,-0.03079 c -0.008,-0.135875 -0.008,-0.313459 -0.0196,-0.513385 a 0.77545377,0.77545377 0 0 0 -10e-4,-0.01413 l -0.0384,-0.499252 c -0.0224,-0.380295 -0.0751,-0.739928 -0.11307,-1.062602 a 0.77545377,0.77545377 0 0 0 -0.002,-0.01616 c -0.19405,-1.399153 -0.50957,-2.7516 -0.9041,-4.066683 a 0.77545377,0.77545377 0 0 0 -10e-4,-0.002 c -0.1,-0.330101 -0.20166,-0.65565 -0.315,-0.985375 -0.1091,-0.317372 -0.21909,-0.627799 -0.33922,-0.948517 l -10e-4,-0.0015 c -0.23359,-0.649863 -0.48799,-1.281403 -0.77286,-1.912184 a 0.77545377,0.77545377 0 0 0 -0.54064,-0.437669 z"
       inkscape:label="path4" />
    <path
       id="path5"
       style="color:#000000;fill:#ffffff;stroke:none;stroke-width:1.55075;stroke-linecap:round;stroke-linejoin:round;-inkscape-stroke:none"
       d="m 47.881015,10.462184 c -0.150087,-0.0023 -0.301322,-0.0014 -0.452807,0.0025 v 5.04e-4 c -0.306411,0.008 -0.614649,0.02923 -0.923283,0.06714 a 0.77545377,0.77545377 0 0 0 -0.01565,0.002 c -0.2919,0.0417 -0.594479,0.09376 -0.891986,0.157505 a 0.77545377,0.77545377 0 0 0 -0.02575,0.006 c -0.293405,0.07335 -0.596978,0.159461 -0.901073,0.272086 -0.298247,0.110462 -0.592388,0.240944 -0.868765,0.384661 a 0.77545377,0.77545377 0 0 0 -0.0212,0.01161 c -0.258221,0.144605 -0.533342,0.308323 -0.798598,0.512367 -0.505168,0.371791 -0.952728,0.818518 -1.31602,1.318046 a 0.77545377,0.77545377 0 0 0 0.996481,1.137824 c 0.45212,-0.244895 0.885832,-0.450232 1.303399,-0.586581 a 0.77545377,0.77545377 0 0 0 0.01362,-0.0045 c 0.418604,-0.145228 0.853149,-0.232953 1.286237,-0.277142 a 0.77545377,0.77545377 0 0 0 0.01565,-0.002 c 0.420798,-0.05153 0.863079,-0.05269 1.304409,-0.01667 a 0.77545377,0.77545377 0 0 0 10e-4,0 c 0.219662,0.01757 0.441887,0.04506 0.684512,0.07421 0.238085,0.03817 0.460421,0.07535 0.687036,0.120655 0.223524,0.04471 0.4507,0.101178 0.70218,0.161534 0.240559,0.05773 0.465339,0.114403 0.697132,0.179205 0.48864,0.149416 0.965061,0.285794 1.439697,0.437659 a 0.77545377,0.77545377 0 0 0 0.003,10e-4 l 1.501283,0.474007 a 0.77545377,0.77545377 0 0 0 0.0055,0.0015 c 0.53362,0.164191 1.067165,0.304945 1.590633,0.44322 a 0.77545377,0.77545377 0 0 0 0.0101,0.0025 c 2.152314,0.538077 4.40085,0.834469 6.651276,0.793549 1.133413,-0.0206 2.262358,-0.143954 3.358452,-0.348828 a 0.77545377,0.77545377 0 0 0 0.0096,-0.002 l 0.394756,-0.07875 a 0.77545377,0.77545377 0 0 0 0.02222,-0.005 c 0.119909,-0.02767 0.258373,-0.05727 0.39526,-0.08885 a 0.77545377,0.77545377 0 0 0 0.02726,-0.0065 c 0.229826,-0.06188 0.501328,-0.122916 0.792035,-0.211511 0.270746,-0.0732 0.541059,-0.155519 0.810713,-0.248865 a 0.77545377,0.77545377 0 0 0 0.03433,-0.01312 c 0.223749,-0.0895 0.480551,-0.178188 0.750641,-0.286229 a 0.77545377,0.77545377 0 0 0 -0.232714,-1.493705 c -0.311882,-0.02229 -0.569636,-0.02307 -0.779921,-0.04644 a 0.77545377,0.77545377 0 0 0 -0.08531,-0.0045 c -0.217032,0 -0.485053,-0.0197 -0.790016,-0.0197 -0.228383,0 -0.475261,-0.01867 -0.761746,-0.02927 a 0.77545377,0.77545377 0 0 0 -0.02827,-10e-4 c -0.09002,0 -0.210244,-0.0068 -0.351342,-0.0086 l -0.381082,-0.0288 a 0.77545377,0.77545377 0 0 0 -0.01362,-10e-4 c -1.022081,-0.0584 -2.031731,-0.145732 -3.028814,-0.271581 -1.996616,-0.251996 -3.961428,-0.650209 -5.935467,-1.138832 -0.981192,-0.24287 -1.958706,-0.519489 -3.028814,-0.78951 a 0.77545377,0.77545377 0 0 0 -0.01868,-0.004 c -0.52342,-0.118511 -1.070261,-0.240252 -1.639598,-0.333677 -0.285295,-0.05257 -0.577238,-0.09446 -0.868765,-0.125692 -0.275646,-0.02955 -0.569634,-0.0614 -0.88189,-0.0727 -0.148258,-0.0077 -0.297167,-0.01335 -0.447256,-0.01564 z"
       inkscape:label="path3" />
    <path
       id="path4"
       style="color:#000000;fill:#ffffff;stroke-width:0.976852;stroke-linecap:round;stroke-linejoin:round;-inkscape-stroke:none"
       d="m 63.46881,22.648624 c -18.769342,0 -34.718967,12.036106 -40.579552,28.813113 -0.0066,0.01681 -0.01808,0.03114 -0.02473,0.04795 h 0.002 c -0.0039,0.01113 -0.0098,0.02118 -0.01363,0.03231 a 0.77545405,0.77545405 0 0 0 1.451812,0.539635 C 30.27642,37.012159 45.518596,26.983972 62.594983,26.939442 85.271219,26.93948 103.594,44.282381 103.59402,65.641634 103.594,87.000278 85.272341,104.34229 62.597002,104.34332 45.526677,104.29952 30.28956,94.277774 24.312801,79.216279 a 0.77546382,0.77546382 0 0 0 -1.453832,0.540138 c 0.0039,0.01113 0.0093,0.02118 0.01312,0.03231 h -0.002 c 0.0068,0.01735 0.01782,0.03213 0.02473,0.04947 5.867893,16.767195 21.818153,28.795953 40.574,28.795953 23.738789,0 42.993001,-19.253724 42.993011,-42.992512 -1e-5,-23.738977 -19.262398,-42.993013 -42.993011,-42.993013 z"
       inkscape:label="path2" />
    <path
       id="path3"
       style="color:#000000;fill:#800000;stroke-width:0.976852;-inkscape-stroke:none"
       d="m 63.937772,41.687752 c -8.039173,2.64e-4 -14.507518,6.252487 -14.507518,14.061271 0,5.066327 2.832233,9.600453 7.188892,12.004707 l -4.065679,16.970448 -0.002,0.002 c -0.593847,2.586866 1.499217,5.145956 4.390268,5.145955 h 13.990598 c 2.891052,10e-7 4.984095,-2.55909 4.390267,-5.145955 v -0.002 L 71.256902,67.75373 c 4.356586,-2.40427 7.188891,-6.938412 7.188891,-12.004707 0,-7.808803 -6.468327,-14.061007 -14.507517,-14.061271 z m -0.495716,4.06366 c 6.081901,0 10.941593,4.995697 10.941593,11.285362 0,4.18753 -2.236666,7.946548 -5.671961,9.819923 l -0.341751,0.187281 3.480107,15.461594 c 0.354196,1.653381 -0.877433,3.304437 -2.678481,3.304437 H 57.714567 c -1.802474,0 -3.035964,-1.653791 -2.678985,-3.308477 l 3.480107,-15.457554 -0.343266,-0.187281 c -3.435295,-1.873375 -5.672465,-5.632393 -5.672465,-9.819923 0,-6.289664 4.860208,-11.285362 10.942098,-11.285362 z"
       inkscape:label="path1" />
  </g>
</svg>
